<svg width="24" height="20" viewBox="0 0 24 20" fill="none" xmlns="http://www.w3.org/2000/svg">
<path d="M5 9.25C4.58579 9.25 4.25 9.58579 4.25 10C4.25 10.4142 4.58579 10.75 5 10.75V9.25ZM19.5303 10.5303C19.8232 10.2374 19.8232 9.76256 19.5303 9.46967L14.7574 4.6967C14.4645 4.40381 13.9896 4.40381 13.6967 4.6967C13.4038 4.98959 13.4038 5.46447 13.6967 5.75736L17.9393 10L13.6967 14.2426C13.4038 14.5355 13.4038 15.0104 13.6967 15.3033C13.9896 15.5962 14.4645 15.5962 14.7574 15.3033L19.5303 10.5303ZM5 10.75H19V9.25H5V10.75Z" fill="white"/>
</svg>
