<svg width="24" height="20" viewBox="0 0 24 20" fill="none" xmlns="http://www.w3.org/2000/svg">
<path d="M3 8.75195C2.58579 8.75195 2.25 9.08774 2.25 9.50195C2.25 9.91617 2.58579 10.252 3 10.252V8.75195ZM21.5303 10.0323C21.8232 9.73939 21.8232 9.26452 21.5303 8.97162L16.7574 4.19865C16.4645 3.90576 15.9896 3.90576 15.6967 4.19865C15.4038 4.49155 15.4038 4.96642 15.6967 5.25931L19.9393 9.50195L15.6967 13.7446C15.4038 14.0375 15.4038 14.5124 15.6967 14.8053C15.9896 15.0981 16.4645 15.0981 16.7574 14.8053L21.5303 10.0323ZM3 10.252H21V8.75195H3V10.252Z" fill="#15A1D3"/>
</svg>
