<svg width="24" height="25" viewBox="0 0 24 25" fill="none" xmlns="http://www.w3.org/2000/svg">
<g clip-path="url(#clip0_4298_6665)">
<path d="M20.6201 9.25078C19.5701 4.63078 15.5401 2.55078 12.0001 2.55078C12.0001 2.55078 12.0001 2.55078 11.9901 2.55078C8.4601 2.55078 4.4201 4.62078 3.3701 9.24078C2.2001 14.4008 5.3601 18.7708 8.2201 21.5208C9.2801 22.5408 10.6401 23.0508 12.0001 23.0508C13.3601 23.0508 14.7201 22.5408 15.7701 21.5208C18.6301 18.7708 21.7901 14.4108 20.6201 9.25078ZM12.0001 14.2608C10.2601 14.2608 8.8501 12.8508 8.8501 11.1108C8.8501 9.37078 10.2601 7.96078 12.0001 7.96078C13.7401 7.96078 15.1501 9.37078 15.1501 11.1108C15.1501 12.8508 13.7401 14.2608 12.0001 14.2608Z" fill="#15A1D3"/>
</g>
<defs>
<clipPath id="clip0_4298_6665">
<rect width="24" height="24" fill="white" transform="translate(0 0.800781)"/>
</clipPath>
</defs>
</svg>
