<svg width="32" height="32" viewBox="0 0 32 32" fill="none" xmlns="http://www.w3.org/2000/svg">
<path d="M16.0013 22.5386C17.1015 22.5386 17.9935 21.6467 17.9935 20.5464C17.9935 19.4461 17.1015 18.5542 16.0013 18.5542C14.901 18.5542 14.009 19.4461 14.009 20.5464C14.009 21.6467 14.901 22.5386 16.0013 22.5386Z" fill="#15A1D3"/>
<path d="M23.6754 12.9809V11.4531C23.6754 8.15314 22.8809 3.77759 15.9998 3.77759C9.1187 3.77759 8.32425 8.15314 8.32425 11.4531V12.9809C4.90203 13.4087 3.77759 15.1443 3.77759 19.4098V21.6831C3.77759 26.6943 5.30537 28.222 10.3165 28.222H21.6831C26.6943 28.222 28.222 26.6943 28.222 21.6831V19.4098C28.222 15.1443 27.0976 13.4087 23.6754 12.9809ZM15.9998 24.2376C13.9587 24.2376 12.3087 22.5754 12.3087 20.5465C12.3087 18.5054 13.9709 16.8554 15.9998 16.8554C18.0287 16.8554 19.6909 18.5176 19.6909 20.5465C19.6909 22.5876 18.0409 24.2376 15.9998 24.2376ZM10.3165 12.8709C10.2187 12.8709 10.1331 12.8709 10.0354 12.8709V11.4531C10.0354 7.87203 11.0498 5.4887 15.9998 5.4887C20.9498 5.4887 21.9643 7.87203 21.9643 11.4531V12.8831C21.8665 12.8831 21.7809 12.8831 21.6831 12.8831H10.3165V12.8709Z" fill="#15A1D3"/>
</svg>
