<svg width="192" height="192" viewBox="0 0 192 192" fill="none" xmlns="http://www.w3.org/2000/svg">
<path fill-rule="evenodd" clip-rule="evenodd" d="M22.3366 110.139V22.3366H49.4257V0H0V110.139C-1.87857e-07 121.388 2.48311 128.725 7.30756 139.119C12.132 149.512 19.2033 158.955 28.1177 166.91C37.0322 174.864 47.6151 181.174 59.2624 185.479C70.9096 189.784 83.3931 192 96 192C108.607 192 121.09 189.784 132.738 185.479C144.385 181.174 154.968 174.864 163.882 166.91C172.797 158.955 179.868 149.512 184.692 139.119C189.517 128.725 192 121.388 192 110.139V0H142.574V22.3366H170.139V110.139C170.139 126.367 157.347 141.315 144.487 152.79C131.628 164.265 114.186 170.712 96 170.712C77.8137 170.712 60.3723 164.265 47.5127 152.79C34.653 141.315 22.3366 126.367 22.3366 110.139Z" fill="#15A1D3"/>
<path d="M70.0754 101.619H48.057" stroke="#15A1D3" stroke-width="27"/>
<path d="M145.818 101.619H123.8" stroke="#15A1D3" stroke-width="27"/>
<path d="M96.4974 150.06L96.4974 128.041" stroke="#15A1D3" stroke-width="27"/>
<path d="M131.438 135.689L115.874 120.115" stroke="#15A1D3" stroke-width="27"/>
<path d="M131.438 68.1514L115.874 83.726" stroke="#15A1D3" stroke-width="27"/>
<path d="M77.7128 120.115L62.1487 135.689" stroke="#15A1D3" stroke-width="27"/>
<path d="M77.7128 83.726L62.1487 68.1514" stroke="#15A1D3" stroke-width="27"/>
<path d="M96.4974 76.078L96.4974 54.0596" stroke="#15A1D3" stroke-width="27"/>
</svg>
