<svg width="11" height="11" viewBox="0 0 11 11" fill="none" xmlns="http://www.w3.org/2000/svg">
<path d="M3.40925 0.904966C4.14217 -0.301655 5.89337 -0.301656 6.62629 0.904966C6.95986 1.45413 7.55055 1.79517 8.19293 1.80947C9.60435 1.84088 10.48 3.35746 9.80145 4.5955C9.49264 5.15896 9.49264 5.84104 9.80145 6.4045C10.48 7.64254 9.60435 9.15912 8.19293 9.19053C7.55055 9.20483 6.95986 9.54587 6.62629 10.095C5.89337 11.3017 4.14217 11.3017 3.40925 10.095C3.07568 9.54587 2.48499 9.20483 1.84261 9.19053C0.43119 9.15912 -0.44441 7.64254 0.234096 6.4045C0.542903 5.84104 0.542903 5.15896 0.234096 4.5955C-0.44441 3.35746 0.43119 1.84088 1.84261 1.80947C2.48499 1.79517 3.07568 1.45413 3.40925 0.904966Z" fill="#15A1D3"/>
</svg>
