<svg width="16" height="16" viewBox="0 0 16 16" fill="none" xmlns="http://www.w3.org/2000/svg">
<path d="M14.6468 12.2187C14.6468 12.4587 14.5935 12.7054 14.4802 12.9454C14.3668 13.1854 14.2202 13.412 14.0268 13.6254C13.7002 13.9854 13.3402 14.2454 12.9335 14.412C12.5335 14.5787 12.1002 14.6654 11.6335 14.6654C10.9535 14.6654 10.2268 14.5054 9.46016 14.1787C8.6935 13.852 7.92683 13.412 7.16683 12.8587C6.40016 12.2987 5.6735 11.6787 4.98016 10.992C4.2935 10.2987 3.6735 9.57203 3.12016 8.81203C2.5735 8.05203 2.1335 7.29203 1.8135 6.5387C1.4935 5.7787 1.3335 5.05203 1.3335 4.3587C1.3335 3.90536 1.4135 3.47203 1.5735 3.07203C1.7335 2.66536 1.98683 2.29203 2.34016 1.9587C2.76683 1.5387 3.2335 1.33203 3.72683 1.33203C3.9135 1.33203 4.10016 1.37203 4.26683 1.45203C4.44016 1.53203 4.5935 1.65203 4.7135 1.82536L6.26016 4.00536C6.38016 4.17203 6.46683 4.32536 6.52683 4.47203C6.58683 4.61203 6.62016 4.75203 6.62016 4.8787C6.62016 5.0387 6.5735 5.1987 6.48016 5.35203C6.3935 5.50536 6.26683 5.66536 6.10683 5.82536L5.60016 6.35203C5.52683 6.42536 5.4935 6.51203 5.4935 6.6187C5.4935 6.67203 5.50016 6.7187 5.5135 6.77203C5.5335 6.82536 5.5535 6.86536 5.56683 6.90536C5.68683 7.12536 5.8935 7.41203 6.18683 7.7587C6.48683 8.10536 6.80683 8.4587 7.1535 8.81203C7.5135 9.16536 7.86016 9.49203 8.2135 9.79203C8.56016 10.0854 8.84683 10.2854 9.0735 10.4054C9.10683 10.4187 9.14683 10.4387 9.1935 10.4587C9.24683 10.4787 9.30016 10.4854 9.36016 10.4854C9.4735 10.4854 9.56016 10.4454 9.6335 10.372L10.1402 9.87203C10.3068 9.70537 10.4668 9.5787 10.6202 9.4987C10.7735 9.40536 10.9268 9.3587 11.0935 9.3587C11.2202 9.3587 11.3535 9.38536 11.5002 9.44536C11.6468 9.50536 11.8002 9.59203 11.9668 9.70537L14.1735 11.272C14.3468 11.392 14.4668 11.532 14.5402 11.6987C14.6068 11.8654 14.6468 12.032 14.6468 12.2187Z" fill="white"/>
</svg>
