<svg width="16" height="18" viewBox="0 0 16 18" fill="none" xmlns="http://www.w3.org/2000/svg">
<path d="M0 4.54509V3.61924C0 2.95391 0.14447 2.3487 0.433409 1.80361C0.722348 1.25852 1.14773 0.821643 1.70956 0.492986C2.27138 0.164329 2.96163 0 3.78029 0C4.62302 0 5.32531 0.164329 5.88713 0.492986C6.45698 0.821643 6.88237 1.25852 7.16328 1.80361C7.45222 2.3487 7.59669 2.95391 7.59669 3.61924V4.54509C7.59669 5.19439 7.45222 5.79158 7.16328 6.33667C6.88237 6.88176 6.461 7.31864 5.89917 7.64729C5.33735 7.97595 4.63908 8.14028 3.80436 8.14028C2.97768 8.14028 2.27941 7.97595 1.70956 7.64729C1.14773 7.31864 0.722348 6.88176 0.433409 6.33667C0.14447 5.79158 0 5.19439 0 4.54509ZM2.29947 3.61924V4.54509C2.29947 4.82565 2.35164 5.09419 2.45598 5.3507C2.56835 5.5992 2.73689 5.80361 2.96163 5.96393C3.19438 6.11623 3.47529 6.19238 3.80436 6.19238C4.14949 6.19238 4.4304 6.11623 4.6471 5.96393C4.86381 5.80361 5.02433 5.5992 5.12867 5.3507C5.23301 5.09419 5.28518 4.82565 5.28518 4.54509V3.61924C5.28518 3.32265 5.22899 3.0501 5.11663 2.8016C5.01229 2.54509 4.84775 2.34068 4.62302 2.18838C4.40632 2.02806 4.12541 1.9479 3.78029 1.9479C3.45924 1.9479 3.18636 2.02806 2.96163 2.18838C2.73689 2.34068 2.56835 2.54509 2.45598 2.8016C2.35164 3.0501 2.29947 3.32265 2.29947 3.61924ZM8.37923 14.3928V13.4669C8.37923 12.8096 8.5237 12.2084 8.81264 11.6633C9.10961 11.1182 9.539 10.6814 10.1008 10.3527C10.6707 10.024 11.3689 9.85972 12.1956 9.85972C13.0303 9.85972 13.7286 10.024 14.2904 10.3527C14.8523 10.6814 15.2777 11.1182 15.5666 11.6633C15.8555 12.2084 16 12.8096 16 13.4669V14.3928C16 15.0501 15.8555 15.6513 15.5666 16.1964C15.2857 16.7415 14.8643 17.1784 14.3025 17.507C13.7407 17.8357 13.0464 18 12.2197 18C11.385 18 10.6827 17.8357 10.1129 17.507C9.54301 17.1784 9.10961 16.7415 8.81264 16.1964C8.5237 15.6513 8.37923 15.0501 8.37923 14.3928ZM10.6907 13.4669V14.3928C10.6907 14.6814 10.755 14.9539 10.8834 15.2104C11.0118 15.4669 11.1884 15.6713 11.4131 15.8236C11.6458 15.976 11.9147 16.0521 12.2197 16.0521C12.605 16.0521 12.9059 15.976 13.1226 15.8236C13.3394 15.6713 13.4878 15.4669 13.5681 15.2104C13.6564 14.9539 13.7005 14.6814 13.7005 14.3928V13.4669C13.7005 13.1784 13.6443 12.9098 13.532 12.6613C13.4196 12.4048 13.2511 12.2004 13.0263 12.0481C12.8096 11.8878 12.5327 11.8076 12.1956 11.8076C11.8585 11.8076 11.5776 11.8878 11.3529 12.0481C11.1362 12.2004 10.9717 12.4048 10.8593 12.6613C10.7469 12.9098 10.6907 13.1784 10.6907 13.4669ZM13.0504 2.75351L4.49059 16.4369L2.80512 15.5471L11.3649 1.86373L13.0504 2.75351Z" fill="#15A1D3"/>
</svg>
