<svg width="32" height="32" viewBox="0 0 32 32" fill="none" xmlns="http://www.w3.org/2000/svg">
<path d="M24.7201 5.49378L17.3867 2.74711C16.6267 2.46711 15.3867 2.46711 14.6267 2.74711L7.2934 5.49378C5.88006 6.02711 4.7334 7.68044 4.7334 9.18711V19.9871C4.7334 21.0671 5.44007 22.4938 6.30673 23.1338L13.6401 28.6138C14.9334 29.5871 17.0534 29.5871 18.3467 28.6138L25.6801 23.1338C26.5467 22.4804 27.2534 21.0671 27.2534 19.9871V9.18711C27.2667 7.68044 26.1201 6.02711 24.7201 5.49378ZM20.6401 12.9604L14.9067 18.6938C14.7067 18.8938 14.4534 18.9871 14.2001 18.9871C13.9467 18.9871 13.6934 18.8938 13.4934 18.6938L11.3601 16.5338C10.9734 16.1471 10.9734 15.5071 11.3601 15.1204C11.7467 14.7338 12.3867 14.7338 12.7734 15.1204L14.2134 16.5604L19.2401 11.5338C19.6267 11.1471 20.2667 11.1471 20.6534 11.5338C21.0401 11.9204 21.0401 12.5738 20.6401 12.9604Z" fill="#15A1D3"/>
</svg>
