<svg width="30" height="28" viewBox="0 0 30 28" fill="none" xmlns="http://www.w3.org/2000/svg">
<path d="M14.5245 1.08156C14.6741 0.620906 15.3259 0.620901 15.4755 1.08156L18.1167 9.21024C18.3175 9.82827 18.8934 10.2467 19.5433 10.2467L28.0903 10.2467C28.5746 10.2467 28.776 10.8665 28.3842 11.1512L21.4695 16.175C20.9438 16.557 20.7238 17.234 20.9246 17.8521L23.5658 25.9807C23.7154 26.4414 23.1882 26.8245 22.7963 26.5398L15.8817 21.516C15.3559 21.134 14.6441 21.134 14.1183 21.516L7.20366 26.5398C6.8118 26.8245 6.28456 26.4414 6.43424 25.9807L9.0754 17.8521C9.27621 17.234 9.05623 16.557 8.5305 16.175L1.61583 11.1512C1.22397 10.8665 1.42536 10.2467 1.90972 10.2467L10.4567 10.2467C11.1066 10.2467 11.6825 9.82827 11.8833 9.21024L14.5245 1.08156Z" stroke="#15A1D3"/>
</svg>
