<svg width="21" height="21" viewBox="0 0 21 21" fill="none" xmlns="http://www.w3.org/2000/svg">
<mask id="mask0_4316_4953" style="mask-type:luminance" maskUnits="userSpaceOnUse" x="0" y="-1" width="21" height="22">
<path d="M0 -0.000976562H21V20.999H0V-0.000976562Z" fill="white"/>
</mask>
<g mask="url(#mask0_4316_4953)">
<path fill-rule="evenodd" clip-rule="evenodd" d="M15.3115 12.5833C15.0495 12.4529 13.7649 11.8247 13.5258 11.7372C13.2866 11.6497 13.1125 11.6077 12.9376 11.8684C12.7635 12.1283 12.2632 12.7137 12.1111 12.8869C11.9581 13.061 11.806 13.082 11.5449 12.9525C11.2838 12.8213 10.4415 12.5474 9.4436 11.6619C8.66726 10.9724 8.14237 10.121 7.99027 9.86029C7.83816 9.60042 7.97356 9.45954 8.10457 9.33004C8.22238 9.21367 8.36569 9.02642 8.49669 8.87504C8.6277 8.72367 8.67078 8.61429 8.75782 8.44017C8.84574 8.26692 8.80178 8.11554 8.73584 7.98517C8.67078 7.85479 8.14853 6.57467 7.93048 6.05404C7.71859 5.54742 7.50318 5.61654 7.34317 5.60779C7.19019 5.60079 7.0161 5.59905 6.84202 5.59905C6.66793 5.59905 6.38483 5.66379 6.14568 5.92454C5.90566 6.18442 5.2313 6.81354 5.2313 8.09367C5.2313 9.37292 6.16678 10.6093 6.29779 10.7834C6.42879 10.9575 8.13973 13.5834 10.7607 14.7095C11.3849 14.9773 11.8711 15.1374 12.25 15.2564C12.876 15.455 13.4458 15.427 13.8959 15.3597C14.3971 15.2853 15.4416 14.7305 15.6596 14.1233C15.8777 13.516 15.8768 12.9954 15.8117 12.8869C15.7467 12.7784 15.5726 12.7137 15.3106 12.5833M10.5435 19.0609H10.54C8.98327 19.0612 7.45515 18.6447 6.11579 17.8552L5.79927 17.6679L2.50927 18.5272L3.3876 15.3352L3.18098 15.0079C2.31064 13.6292 1.85007 12.0336 1.8525 10.4054C1.85426 5.63667 5.75268 1.75693 10.547 1.75693C11.6889 1.75347 12.8201 1.97594 13.8748 2.41141C14.9296 2.84688 15.8868 3.48665 16.6909 4.29355C17.5002 5.0953 18.1417 6.04887 18.5781 7.09903C19.0146 8.1492 19.2374 9.27509 19.2336 10.4115C19.2319 15.1803 15.3334 19.0609 10.5435 19.0609ZM17.9394 3.05105C16.9707 2.08091 15.8182 1.31164 14.5486 0.787759C13.2791 0.263882 11.9178 -0.00419245 10.5435 -0.000947451C4.78115 -0.000947451 0.0896795 4.66717 0.0879211 10.4045C0.0850847 12.2305 0.566386 14.0248 1.48323 15.6064L0 20.999L5.54254 19.5518C7.07604 20.3825 8.79404 20.818 10.54 20.8188H10.5444C16.3067 20.8188 20.9982 16.1507 20.9999 10.4124C21.0042 9.04502 20.736 7.69036 20.2109 6.4268C19.6857 5.16323 18.9139 4.01585 17.9403 3.05105" fill="white"/>
</g>
</svg>
